<svg width="48" height="47" viewBox="0 0 48 47" fill="none" xmlns="http://www.w3.org/2000/svg">
<path d="M32.2427 3.72021L46.9999 5.70438L34.8469 17.8574L32.2427 3.72021Z" fill="#F09800"/>
<path d="M14.8815 43.4038L0.124268 41.4196L12.2773 29.2666L14.8815 43.4038Z" fill="#F09800"/>
<path d="M3.71997 14.8812L5.70413 0.124023L17.8571 12.277L3.71997 14.8812Z" fill="#F09800"/>
<path d="M5.33244 20.0898L0.12401 21.0819C-1.20113e-07 21.95 0 22.6941 0 23.5621C0 29.2666 1.98416 34.723 5.70447 38.9394L9.42477 35.7151C6.57254 32.3668 4.9604 28.0265 4.9604 23.5621C4.9604 22.446 5.08441 21.2059 5.33244 20.0898Z" fill="#F09800"/>
<path d="M23.5616 0C16.8651 0 10.9126 2.85223 6.57227 7.3166L10.0445 10.7889C13.5168 7.19259 18.2292 4.9604 23.5616 4.9604C24.6777 4.9604 25.9178 5.08441 27.0339 5.33243L27.902 0.496041C26.5379 0.12401 25.0498 0 23.5616 0Z" fill="#F09800"/>
<path d="M41.7911 27.0341L46.9995 26.0421C47.1235 25.174 47.1235 24.4299 47.1235 23.5619C47.1235 18.1054 45.2634 12.773 41.7911 8.55664L37.9468 11.6569C40.675 15.0052 42.1631 19.2215 42.1631 23.4379C42.1631 24.678 42.0391 25.9181 41.7911 27.0341Z" fill="#F09800"/>
<path d="M37.0791 36.335C33.6069 39.9313 28.8945 42.1634 23.562 42.1634C22.4459 42.1634 21.2058 42.0394 20.0898 41.7914L19.2217 46.6278C20.7098 46.8758 22.1979 46.9998 23.562 46.9998C30.2586 46.9998 36.2111 44.1476 40.5514 39.6832L37.0791 36.335Z" fill="#F09800"/>
<path d="M43.4033 32.2427L41.4191 46.9999L29.2661 34.8469L43.4033 32.2427Z" fill="#F09800"/>
</svg>
