<svg width="52" height="52" viewBox="0 0 52 52" fill="none" xmlns="http://www.w3.org/2000/svg">
<path d="M25.2984 26.035L25.7783 26.2003C33.6543 28.9118 43.1394 26.3189 49.8334 19.625M25.2984 26.035L23.9513 25.5715C16.6005 23.0407 7.74769 25.4605 1.5 31.7084M25.2984 26.035L25.1331 25.555C22.4216 17.6791 25.0144 8.19395 31.7084 1.5M25.2984 26.035L25.7619 27.382C28.2926 34.7328 25.8728 43.5856 19.625 49.8334" stroke="#F09800" stroke-width="3" stroke-linecap="round"/>
<path opacity="0.5" d="M13.0149 25.2881L25.2878 37.5609" stroke="#F09800" stroke-width="3" stroke-linecap="round"/>
<path opacity="0.5" d="M25.2893 13.0146L37.5621 25.2876" stroke="#F09800" stroke-width="3" stroke-linecap="round"/>
<path opacity="0.5" d="M6.33276 28.0835L14.7911 36.5418" stroke="#F09800" stroke-width="3" stroke-linecap="round"/>
<path opacity="0.5" d="M44.4644 22.9856L36.0061 14.5273" stroke="#F09800" stroke-width="3" stroke-linecap="round"/>
<path opacity="0.5" d="M19.1528 40.6294L22.9881 44.4646" stroke="#F09800" stroke-width="3" stroke-linecap="round"/>
<path opacity="0.5" d="M31.9183 10.1683L28.083 6.33301" stroke="#F09800" stroke-width="3" stroke-linecap="round"/>
</svg>
