<svg width="48" height="43" viewBox="0 0 48 43" fill="none" xmlns="http://www.w3.org/2000/svg">
<path d="M0 21.3466C0 22.3281 0.780797 22.9211 1.74658 22.9211C2.34248 22.9211 2.81503 22.6348 3.22603 22.2258L23.2807 4.04849C23.5068 3.82358 23.7534 3.74175 24.0204 3.74175C24.267 3.74175 24.4931 3.82358 24.7396 4.04849L44.774 22.2258C45.2053 22.6348 45.6779 22.9211 46.2532 22.9211C47.2189 22.9211 48 22.3281 48 21.3466C48 20.7332 47.774 20.3448 47.3835 19.9972L40.2737 13.5563V1.47218C40.2737 0.572473 39.6984 0 38.7946 0H36.1026C35.2191 0 34.6026 0.572473 34.6026 1.47218V8.42412L26.4657 1.02237C25.7465 0.347566 24.8629 0.0204144 23.9999 0.0204144C23.1369 0.0204144 22.2739 0.347566 21.5342 1.02237L0.616414 19.9972C0.246618 20.3448 0 20.7332 0 21.3466ZM5.87667 38.5017C5.87667 41.3438 7.60273 43 10.5 43H18.8218V28.4622C18.8218 27.5216 19.4588 26.9082 20.4041 26.9082H27.6575C28.6026 26.9082 29.2191 27.5216 29.2191 28.4622V43H37.5203C40.4176 43 42.1232 41.3438 42.1232 38.5017V23.5345L24.678 7.89248C24.4519 7.68799 24.2054 7.58583 23.9589 7.58583C23.7328 7.58583 23.5068 7.68799 23.2602 7.91298L5.87667 23.6367V38.5017Z" fill="#F09800"/>
</svg>
