<svg width="73" height="46" viewBox="0 0 73 46" fill="none" xmlns="http://www.w3.org/2000/svg">
<path d="M18.0847 32.6145C14.3823 32.6145 11.392 35.6049 11.392 39.3073C11.392 43.0096 14.3823 46 18.0847 46C21.7871 46 24.7775 43.0096 24.7775 39.3073C24.7775 35.6049 21.7871 32.6145 18.0847 32.6145ZM18.0847 41.842C16.6892 41.842 15.5215 40.6743 15.5215 39.2788C15.5215 37.8833 16.6892 36.7156 18.0847 36.7156C19.4802 36.7156 20.6479 37.8833 20.6479 39.2788C20.6479 40.7028 19.5087 41.842 18.0847 41.842ZM60.178 32.3297C56.4756 32.3297 53.4852 35.3201 53.4852 39.0225C53.4852 42.7248 56.4756 45.7152 60.178 45.7152C63.8804 45.7152 66.8708 42.7248 66.8708 39.0225C66.8708 35.3201 63.8804 32.3297 60.178 32.3297ZM60.178 41.5572C58.7825 41.5572 57.6148 40.3895 57.6148 38.994C57.6148 37.5985 58.7825 36.4308 60.178 36.4308C61.5735 36.4308 62.7412 37.5985 62.7412 38.994C62.7412 40.418 61.602 41.5572 60.178 41.5572ZM0 35.491C0 36.801 1.05376 37.8263 2.33535 37.8263H8.7718C9.02812 37.8263 9.25596 37.6269 9.31292 37.3991C10.0534 33.2126 13.6988 30.3076 18.0847 30.3076C22.4706 30.3076 26.1445 33.2126 26.8565 37.3991C26.9135 37.6554 27.1129 37.8263 27.3976 37.8263H28.3375H37.1378V27.4881H0V35.491ZM72.3674 33.0417H70.9434V26.7761C70.9434 24.6401 69.2061 22.9028 67.0416 22.9028H60.121C59.9786 22.9028 59.8362 22.8174 59.7223 22.732L48.9 12.1944C48.4158 11.7103 47.7323 11.4255 47.0203 11.397H39.1883V37.8263H50.8366C51.0929 37.8263 51.3208 37.6269 51.3777 37.3991C52.1182 33.2126 55.7636 30.0228 60.1495 30.0228C64.5354 30.0228 68.2093 33.2126 68.9213 37.3991C68.9783 37.6554 69.1776 37.8263 69.4624 37.8263H70.3738C71.7693 37.8263 72.8515 36.7156 72.8515 35.3486V33.5543C72.9085 33.298 72.6522 33.0417 72.3674 33.0417ZM54.5675 22.9313H42.7768C42.492 22.9313 42.2357 22.675 42.2357 22.3902V14.8715C42.2357 14.5867 42.492 14.3304 42.7768 14.3304H46.7355C46.8779 14.3304 47.0203 14.4158 47.1627 14.5013L54.9947 21.9915C55.251 22.3617 55.0231 22.9313 54.5675 22.9313Z" fill="#F09800"/>
<path d="M16.2388 26.7426H4.64746V15.1513H9.1188V18.8537H11.7674V15.1513H16.2388V26.7426ZM31.3616 26.7426H19.7988V15.1513H24.2701V18.8537H26.9187V15.1513H31.3901V26.7426H31.3616ZM23.8999 11.5913H12.3085V0H16.7799V3.70239H19.4285V0H23.8999V11.5913Z" fill="#F09800"/>
</svg>
